HIERARCHY
ROOT Hips
{
	OFFSET 55.527401 9.528331 57.937199
	CHANNELS 6 Xposition Yposition Zposition Xrotation Yrotation Zrotation
	JOINT spine
	{
		OFFSET 0.000000 -0.393701 6.846371
		CHANNELS 3 Xrotation Yrotation Zrotation
		JOINT spine1
		{
			OFFSET 0.000000 -0.000002 9.496208
			CHANNELS 3 Xrotation Yrotation Zrotation
			JOINT spine2
			{
				OFFSET 0.000000 -0.000001 9.099091
				CHANNELS 3 Xrotation Yrotation Zrotation
				JOINT Neck
				{
					OFFSET 0.000000 -1.113784 23.361198
					CHANNELS 3 Xrotation Yrotation Zrotation
					JOINT Head
					{
						OFFSET 0.000000 -0.000001 7.058022
						CHANNELS 3 Xrotation Yrotation Zrotation
						End Site
						{
							OFFSET 0.000000 5.634187 17.084404
						}
					}
				}
				JOINT RightShoulder
				{
					OFFSET -3.831360 0.533489 9.826309
					CHANNELS 3 Xrotation Yrotation Zrotation
					JOINT RightArm
					{
						OFFSET 0.000000 -0.000002 12.888100
						CHANNELS 3 Xrotation Yrotation Zrotation
						JOINT RightArmRoll
						{
							OFFSET 0.000000 -0.000001 6.506172
							CHANNELS 3 Xrotation Yrotation Zrotation
							JOINT RightForeArm
							{
								OFFSET 0.000000 -0.000003 18.950096
								CHANNELS 3 Xrotation Yrotation Zrotation
								JOINT RightForeArmRoll
								{
									OFFSET 0.000000 -0.000002 7.300934
									CHANNELS 3 Xrotation Yrotation Zrotation
									JOINT RightHand
									{
										OFFSET 0.000000 -0.000002 14.651398
										CHANNELS 3 Xrotation Yrotation Zrotation
										End Site
										{
											OFFSET 0.000000 0.000000 0.100006
										}
									}
								}
							}
						}
					}
				}
				JOINT LeftShoulder
				{
					OFFSET 3.831360 0.533489 9.826309
					CHANNELS 3 Xrotation Yrotation Zrotation
					JOINT LeftArm
					{
						OFFSET 0.000000 -0.000002 12.888100
						CHANNELS 3 Xrotation Yrotation Zrotation
						JOINT LeftArmRoll
						{
							OFFSET 0.000000 -0.000001 6.506172
							CHANNELS 3 Xrotation Yrotation Zrotation
							JOINT LeftForeArm
							{
								OFFSET 0.000000 -0.000003 18.950096
								CHANNELS 3 Xrotation Yrotation Zrotation
								JOINT LeftForeArmRoll
								{
									OFFSET 0.000000 -0.000002 7.300919
									CHANNELS 3 Xrotation Yrotation Zrotation
									JOINT LeftHand
									{
										OFFSET 0.000000 -0.000002 14.651398
										CHANNELS 3 Xrotation Yrotation Zrotation
										End Site
										{
											OFFSET 0.000000 0.000000 0.100006
										}
									}
								}
							}
						}
					}
				}
			}
		}
	}
	JOINT RightUpLeg
	{
		OFFSET -6.068371 0.933477 -1.112782
		CHANNELS 3 Xrotation Yrotation Zrotation
		JOINT RightUpLegRoll
		{
			OFFSET 0.000000 -0.000003 17.179596
			CHANNELS 3 Xrotation Yrotation Zrotation
			JOINT RightLeg
			{
				OFFSET 0.000000 0.000004 -21.274300
				CHANNELS 3 Xrotation Yrotation Zrotation
				JOINT RightLegRoll
				{
					OFFSET 0.000000 -0.000004 21.343903
					CHANNELS 3 Xrotation Yrotation Zrotation
					JOINT RightFoot
					{
						OFFSET 0.000000 -0.000003 17.765198
						CHANNELS 3 Xrotation Yrotation Zrotation
						JOINT RightToeBase
						{
							OFFSET 0.000000 -0.000002 14.850800
							CHANNELS 3 Xrotation Yrotation Zrotation
							End Site
							{
								OFFSET 0.006294 0.829003 7.192146
							}
						}
					}
				}
			}
		}
	}
	JOINT LeftUpLeg
	{
		OFFSET 6.068371 0.933477 -1.112782
		CHANNELS 3 Xrotation Yrotation Zrotation
		JOINT LeftUpLegRoll
		{
			OFFSET 0.000000 -0.000003 17.179703
			CHANNELS 3 Xrotation Yrotation Zrotation
			JOINT LeftLeg
			{
				OFFSET 0.000000 -0.000003 21.274200
				CHANNELS 3 Xrotation Yrotation Zrotation
				JOINT LeftLegRoll
				{
					OFFSET 0.000000 -0.000004 21.541199
					CHANNELS 3 Xrotation Yrotation Zrotation
					JOINT LeftFoot
					{
						OFFSET 0.000000 -0.000003 17.567902
						CHANNELS 3 Xrotation Yrotation Zrotation
						JOINT LeftToeBase
						{
							OFFSET 0.000000 -0.000002 14.850800
							CHANNELS 3 Xrotation Yrotation Zrotation
							End Site
							{
								OFFSET -0.028210 0.829003 7.192123
							}
						}
					}
				}
			}
		}
	}
}
MOTION
Frames: 10
Frame Time: 0.041667
56.523804 -32.281006 91.709396 0.186443 -0.904489 -3.205837 -1.675708 -0.022200 -0.043000 0.651382 -0.033873 -0.074580 2.296450 -0.034764 -0.074170 28.190448 6.105370 0.210692 -12.320828 -2.953870 0.481169 24.206780 -69.442847 25.360861 -44.791400 -108.059385 -36.019733 -0.000003 -0.000000 -0.000003 6.295586 -13.912797 0.178102 -0.000001 0.000014 -3.000000 -5.000208 -7.998765 0.000177 4.647840 66.140765 -4.397698 -36.301311 113.717165 15.180085 -0.000002 0.000014 0.000005 0.099722 11.754385 0.480397 -0.000001 0.000002 3.049810 -5.000243 7.998735 -0.000153 -5.656983 -175.742762 0.536575 -179.999991 0.000005 -0.996998 173.905905 -2.264148 -0.302670 -0.000002 -0.000004 0.050356 68.773250 6.909417 2.116349 25.456962 -7.355616 -0.000000 -1.846391 176.463825 0.771190 -0.000005 -0.000005 -1.060950 -5.917768 1.777750 0.261788 0.000000 0.000000 -0.078689 69.153603 -6.905339 -2.074046 25.456957 7.355614 0.000002 
56.520504 -32.268108 91.709091 0.180508 -0.893398 -3.187246 -1.669009 -0.023913 -0.045067 0.664770 -0.037964 -0.078901 2.309841 -0.038907 -0.078441 28.225263 6.120431 0.203688 -12.307910 -2.962693 0.476985 24.259089 -69.428122 25.420969 -44.880572 -108.081508 -36.122675 -0.000002 -0.000000 -0.000003 6.262734 -13.923389 0.176260 -0.000000 0.000013 -2.999999 -5.000210 -7.998759 0.000177 4.700363 66.152704 -4.455080 -36.467224 113.734077 15.342802 -0.000001 0.000015 0.000008 0.099721 11.743685 0.487972 -0.000002 0.000003 3.050159 -5.000243 7.998734 -0.000153 -5.644789 -175.757597 0.527560 -179.999991 0.000005 -0.996997 173.926109 -2.260252 -0.302446 -0.000002 -0.000004 0.050486 68.760163 6.909392 2.116263 25.456959 -7.355616 0.000000 -1.858789 176.450861 0.765978 -0.000005 -0.000004 -1.061010 -5.932422 1.777236 0.262136 0.000001 0.000001 -0.078690 69.157605 -6.905334 -2.074096 25.456957 7.355613 0.000002 
56.522900 -32.261112 91.708786 0.174084 -0.881909 -3.168271 -1.662366 -0.025665 -0.047292 0.678038 -0.042158 -0.083521 2.323111 -0.043156 -0.083010 28.260294 6.135722 0.197435 -12.293985 -2.970579 0.473623 24.314350 -69.413689 25.484167 -44.970085 -108.102476 -36.225554 -0.000002 -0.000000 -0.000003 6.229810 -13.933879 0.174359 -0.000000 0.000013 -3.000000 -5.000210 -7.998759 0.000177 4.752911 66.165040 -4.512441 -36.631452 113.750790 15.502692 -0.000001 0.000014 0.000006 0.099723 11.732485 0.495586 -0.000001 0.000002 3.050489 -5.000243 7.998734 -0.000153 -5.631145 -175.773416 0.518531 -179.999991 0.000005 -0.996998 173.947228 -2.256361 -0.302188 -0.000002 -0.000004 0.050622 68.746892 6.909420 2.116197 25.456960 -7.355616 0.000000 -1.870237 176.437884 0.760471 -0.000005 -0.000005 -1.061080 -5.946739 1.776723 0.262460 0.000000 0.000001 -0.078691 69.161635 -6.905326 -2.074144 25.456957 7.355614 0.000001 
56.522495 -32.247307 91.709595 0.167311 -0.870144 -3.149029 -1.655777 -0.027446 -0.049626 0.691220 -0.046426 -0.088348 2.336291 -0.047481 -0.087786 28.295544 6.151163 0.191696 -12.279341 -2.977810 0.470856 24.371739 -69.399551 25.549617 -45.057972 -108.123090 -36.326460 -0.000003 -0.000000 -0.000003 6.196859 -13.944267 0.172420 0.000001 0.000013 -3.000001 -5.000209 -7.998765 0.000177 4.805499 66.177546 -4.569810 -36.795585 113.766554 15.661929 -0.000002 0.000014 0.000007 0.099723 11.720785 0.503235 -0.000001 0.000003 3.050799 -5.000244 7.998733 -0.000154 -5.616500 -175.789234 0.509422 -179.999991 0.000005 -0.996997 173.969057 -2.252472 -0.300909 -0.000002 -0.000004 0.050760 68.733601 6.909406 2.116125 25.456959 -7.355616 -0.000000 -1.881025 176.423909 0.754791 -0.000005 -0.000004 -1.061180 -5.960803 1.776210 0.262767 0.000000 0.000001 -0.078692 69.165651 -6.905358 -2.074098 25.456955 7.355613 0.000002 
56.524204 -32.241306 91.712090 0.160344 -0.858223 -3.129639 -1.649207 -0.029242 -0.052022 0.704355 -0.050736 -0.093293 2.349431 -0.051850 -0.092679 28.330800 6.166698 0.186258 -12.264298 -2.984665 0.468436 24.430299 -69.385535 25.616297 -45.147130 -108.142815 -36.428548 -0.000003 0.000000 -0.000003 6.163894 -13.954753 0.170476 -0.000001 0.000011 -3.000000 -5.000212 -7.998764 0.000176 4.858108 66.190134 -4.627185 -36.959086 113.782380 15.820105 -0.000002 0.000015 0.000007 0.099724 11.708884 0.510896 -0.000000 0.000003 3.051100 -5.000243 7.998734 -0.000153 -5.601267 -175.806050 0.500357 -179.999991 0.000005 -0.996998 173.991269 -2.248596 -0.300616 -0.000002 -0.000004 0.050901 68.720213 6.909419 2.115963 25.456959 -7.355617 0.000001 -1.891425 176.409948 0.748995 -0.000005 -0.000005 -1.061290 -5.974749 1.775707 0.263066 -0.000001 0.000001 -0.078694 69.169572 -6.905380 -2.074058 25.456957 7.355615 0.000001 
56.521999 -32.234707 91.712296 0.153323 -0.846267 -3.110196 -1.642650 -0.031043 -0.054434 0.717477 -0.055058 -0.098266 2.362551 -0.056231 -0.097600 28.366064 6.182252 0.180872 -12.249154 -2.991423 0.466087 24.488989 -69.371465 25.683116 -45.235889 -108.162521 -36.530191 -0.000002 -0.000000 -0.000003 6.130917 -13.965138 0.168499 -0.000000 0.000014 -3.000000 -5.000209 -7.998762 0.000177 4.910766 66.202804 -4.684609 -37.121965 113.798274 15.977523 -0.000001 0.000014 0.000006 0.099722 11.696885 0.518562 -0.000000 0.000003 3.051410 -5.000244 7.998731 -0.000153 -5.585894 -175.821869 0.491180 -179.999991 0.000005 -0.996997 174.013576 -2.244708 -0.300334 -0.000002 -0.000004 0.051042 68.706922 6.909399 2.115792 25.456959 -7.355616 0.000000 -1.901736 176.395987 0.743174 -0.000005 -0.000004 -1.061400 -5.988643 1.775204 0.263362 -0.000000 0.000001 -0.078696 69.173478 -6.905404 -2.074019 25.456959 7.355613 0.000002 
56.527901 -32.226509 91.713196 0.146407 -0.834395 -3.090838 -1.636068 -0.032837 -0.056813 0.730623 -0.059362 -0.103177 2.375701 -0.060594 -0.102459 28.401332 6.197751 0.175318 -12.234106 -2.998376 0.463593 24.547025 -69.357361 25.749253 -45.322762 -108.183100 -36.629943 -0.000001 -0.000000 -0.000003 6.097943 -13.975615 0.166530 0.000001 0.000012 -3.000000 -5.000209 -7.998759 0.000176 4.963507 66.215358 -4.742132 -37.285234 113.814529 16.135600 -0.000001 0.000015 0.000006 0.099721 11.684983 0.526221 -0.000001 0.000003 3.051709 -5.000243 7.998732 -0.000153 -5.570824 -175.837688 0.482013 -179.999991 0.000005 -0.996998 174.035665 -2.239826 -0.299948 -0.000002 -0.000004 0.051183 68.693535 6.909401 2.115726 25.456957 -7.355615 0.000000 -1.912237 176.382013 0.737418 -0.000005 -0.000004 -1.061510 -6.002619 1.774702 0.263663 -0.000000 0.000000 -0.078697 69.177495 -6.905394 -2.073966 25.456959 7.355613 0.000002 
56.527306 -32.213314 91.715302 0.139732 -0.822729 -3.071654 -1.629470 -0.034612 -0.059114 0.743831 -0.063618 -0.107936 2.388902 -0.064907 -0.107167 28.436494 6.213135 0.169353 -12.219674 -3.005802 0.460668 24.603443 -69.343024 25.813698 -45.410352 -108.204007 -36.730667 -0.000002 0.000000 -0.000003 6.064996 -13.986086 0.164558 0.000001 0.000014 -3.000001 -5.000211 -7.998762 0.000177 5.016284 66.227693 -4.799724 -37.448886 113.831140 16.294641 -0.000002 0.000015 0.000006 0.099722 11.673385 0.533857 0.000000 0.000003 3.052031 -5.000243 7.998730 -0.000153 -5.556463 -175.853506 0.472893 -179.999991 0.000005 -0.996998 174.057303 -2.235933 -0.299685 -0.000002 -0.000004 0.051321 68.680257 6.909406 2.115558 25.456959 -7.355617 0.000000 -1.923216 176.369049 0.731786 -0.000005 -0.000005 -1.061600 -6.016754 1.774189 0.263974 -0.000000 0.000001 -0.078698 69.181504 -6.905387 -2.074016 25.456959 7.355614 0.000001 
56.527702 -32.205021 91.714691 0.133455 -0.811387 -3.052781 -1.622820 -0.036355 -0.061289 0.757134 -0.067795 -0.112454 2.402202 -0.069137 -0.111635 28.471454 6.228326 0.162755 -12.206046 -3.013983 0.457089 24.657254 -69.328312 25.875381 -45.499121 -108.225365 -36.832970 -0.000002 -0.000001 -0.000003 6.032079 -13.996659 0.162601 0.000002 0.000012 -3.000001 -5.000212 -7.998761 0.000177 5.069128 66.239714 -4.857427 -37.612141 113.849076 16.453869 -0.000001 0.000014 0.000006 0.099724 11.662384 0.541459 -0.000001 0.000002 3.052360 -5.000243 7.998734 -0.000153 -5.543259 -175.869339 0.463853 -179.999991 0.000005 -0.996997 174.078149 -2.232035 -0.298459 -0.000002 -0.000004 0.051454 68.667081 6.909412 2.115484 25.456962 -7.355614 0.000000 -1.934949 176.356058 0.726400 -0.000005 -0.000005 -1.061670 -6.031171 1.773674 0.264303 -0.000000 0.000001 -0.078699 69.185424 -6.905408 -2.074074 25.456957 7.355613 0.000002 
56.527000 -32.198807 91.694794 0.127711 -0.800489 -3.034326 -1.616099 -0.038056 -0.063290 0.770571 -0.071863 -0.116640 2.415642 -0.073255 -0.115771 28.506196 6.243239 0.155298 -12.193433 -3.023196 0.452605 24.707610 -69.313238 25.933462 -45.587346 -108.248028 -36.935204 -0.000001 -0.000000 -0.000003 5.999212 -14.007225 0.160655 -0.000000 0.000012 -3.000000 -5.000211 -7.998760 0.000176 5.122038 66.251305 -4.915259 -37.775577 113.868502 16.614425 -0.000001 0.000015 0.000007 0.099722 11.651985 0.549020 -0.000001 0.000003 3.052718 -5.000243 7.998733 -0.000153 -5.531643 -175.884188 0.454831 -179.999991 0.000005 -0.996998 174.097943 -2.228135 -0.298274 -0.000002 -0.000004 0.051583 68.654022 6.909423 2.115402 25.456957 -7.355616 -0.000000 -1.947740 176.343108 0.721354 -0.000005 -0.000004 -1.061710 -6.045954 1.773148 0.264657 0.000000 0.000000 -0.078700 69.189434 -6.905400 -2.074123 25.456959 7.355613 0.000001 
